<svg id="Layer_1" data-name="Layer 1" xmlns="http://www.w3.org/2000/svg" viewBox="0 0 500 500"><defs></defs><title>B</title><path class="cls-1" d="M283.35,287.26q-12.54-9.83-35-9.83H212.83v75.83h35.11q22.47,0,35.21-10.43t12.73-28.49Q295.88,297.09,283.35,287.26Z"/><path class="cls-1" d="M272.91,219.56q11.54-9.74,11.54-26.78,0-31.69-47.34-31.7H212.83v68.21h28.49Q261.38,229.29,272.91,219.56Z"/><path class="cls-1" d="M250,0C111.93,0,0,111.93,0,250S111.93,500,250,500,500,388.07,500,250,388.07,0,250,0Zm85.8,377.83Q307.52,401,258.57,401H148V113.34H252.75q48.15,0,74,17.65t25.87,49.75a58.89,58.89,0,0,1-15.74,40.72q-15.75,17.46-40.22,24.28v.8q30.69,3.81,49,22.67t18.36,45.93Q364.09,354.67,335.8,377.83Z"/></svg>